<svg xmlns="http://www.w3.org/2000/svg" viewBox="0 0 100 100">
  <defs>
    <linearGradient id="hiveGradient" x1="0%" y1="0%" x2="100%" y2="100%">
      <stop offset="0%" style="stop-color:#FFA726;stop-opacity:1" />
      <stop offset="100%" style="stop-color:#F57C00;stop-opacity:1" />
    </linearGradient>
  </defs>
  
  <!-- Hexagon honeycomb pattern -->
  <g fill="url(#hiveGradient)" stroke="#F57C00" stroke-width="2">
    <!-- Center hexagon -->
    <polygon points="50,20 65,30 65,50 50,60 35,50 35,30" />
    
    <!-- Surrounding hexagons (simplified) -->
    <polygon points="35,10 50,0 65,10 65,20 50,30 35,20" opacity="0.7" />
    <polygon points="20,30 35,20 50,30 50,50 35,60 20,50" opacity="0.7" />
    <polygon points="65,30 80,20 95,30 95,50 80,60 65,50" opacity="0.7" />
  </g>
  
  <!-- Small circles representing bees/community -->
  <circle cx="50" cy="40" r="3" fill="#42A5F5" />
  <circle cx="42" cy="35" r="2" fill="#42A5F5" opacity="0.8" />
  <circle cx="58" cy="35" r="2" fill="#42A5F5" opacity="0.8" />
</svg>
